<svg width="126" height="126" viewBox="0 0 126 126" fill="none" xmlns="http://www.w3.org/2000/svg">
  <circle cx="63.1684" cy="62.8325" r="62.8325" fill="url(#paint0_linear_4741_2378)"/>

  <!-- Heart with ECG Line -->
  <g fill="none" stroke="#577CFF" stroke-width="2">
    <!-- Heart shape -->
    <path d="M63 96s32-18 32-38c0-14-10-22-18-22-8 0-12 6-16 10-4-4-8-10-16-10-8 0-18 8-18 22 0 20 32 38 32 38z"/>
    
    <!-- ECG Line -->
    <path d="M47 68 L53 73 L60 65 L67 75 L73 66 L78 72 L85 68 L91 74 L96 67" stroke-linecap="round"/>
  </g>

  <mask id="mask0_4741_2378" style="mask-type:alpha" maskUnits="userSpaceOnUse" x="29" y="23" width="68" height="83">
    <path d="M64.5793 87.6246C64.5793 86.8564 64.2973 86.1312 63.6476 85.6477C63.1942 85.3102 62.7965 84.935 62.4841 84.5145C62.3028 84.2727 62.1492 84.0234 62.0182 83.7717C61.8696 83.4795 61.7513 83.1874 61.6581 82.8978C61.5524 82.5653 61.4768 82.238 61.4214 81.9182C61.3584 81.553 61.3256 81.2005 61.3031 80.8555C61.2804 80.4651 61.2754 80.0925 61.2754 79.7349C61.2754 79.405 61.2728 79.0852 61.2728 78.793V78.5814V77.1081V76.5239C61.2728 76.5239 61.2728 68.415 61.2728 65.5896C61.2728 64.2524 60.8874 63.0159 59.704 61.8323C57.0623 59.1906 53.0053 60.213 52.7636 60.135L43.582 62.3662C45.9592 65.6047 49.2833 68.1934 53.3301 69.6743V73.0865C39.6308 76.9394 29.6836 88.7954 29.6836 105.527H42.6904H51.7086V103.575C51.7086 102.55 51.7614 101.613 51.8723 100.752C51.9806 99.8885 52.1494 99.0977 52.3861 98.3724C52.5447 97.8889 52.7362 97.4331 52.9604 97.005C53.26 96.4334 53.6278 95.9172 54.0558 95.4638C54.3026 95.2045 56.1007 93.1797 58.7046 93.1797C62.8896 93.18 64.5793 91.0294 64.5793 87.6246Z" fill="white"/>
  </mask>
  
  <g mask="url(#mask0_4741_2378)">
    <!-- Removed Blue Background -->
  </g>
  
  <defs>
    <linearGradient id="paint0_linear_4741_2378" x1="63.1684" y1="0" x2="63.1684" y2="125.665" gradientUnits="userSpaceOnUse">
      <stop stop-color="#AFC1DC"/>
      <stop offset="1" stop-color="#E2E5ED"/>
    </linearGradient>
  </defs>
</svg>
